HIERARCHY
ROOT Hips
{
 OFFSET 0.000000 0.000000 0.000000
 CHANNELS 6 Xposition Yposition Zposition Yrotation Xrotation Zrotation
 JOINT Chest
 {
  OFFSET 0.000000 10.354800 0.006500
  CHANNELS 3 Yrotation Xrotation Zrotation
  JOINT Chest2
  {
   OFFSET 0.000000 10.435800 -0.013200
   CHANNELS 3 Yrotation Xrotation Zrotation
   JOINT Chest3
   {
    OFFSET 0.000000 10.393700 0.000000
    CHANNELS 3 Yrotation Xrotation Zrotation
    JOINT Chest4
    {
     OFFSET 0.000000 10.383100 0.000000
     CHANNELS 3 Yrotation Xrotation Zrotation
     JOINT Neck
     {
      OFFSET 0.000000 15.694000 0.000000
      CHANNELS 3 Yrotation Xrotation Zrotation
      JOINT Head
      {
       OFFSET 0.000000 9.711000 -0.028000
       CHANNELS 3 Yrotation Xrotation Zrotation
       End Site
       {
        OFFSET 0.000000 18.578700 -0.014800
       }
      }
     }
     JOINT RightCollar
     {
      OFFSET -3.157200 10.367500 0.000000
      CHANNELS 3 Yrotation Xrotation Zrotation
      JOINT RightShoulder
      {
       OFFSET -14.482500 0.000000 0.000000
       CHANNELS 3 Yrotation Xrotation Zrotation
       JOINT RightElbow
       {
        OFFSET 0.000000 -31.707800 0.000000
        CHANNELS 3 Yrotation Xrotation Zrotation
        JOINT RightWrist
        {
         OFFSET 0.000000 -25.659300 0.000000
         CHANNELS 3 Yrotation Xrotation Zrotation
         End Site
         {
          OFFSET 0.000000 -18.994300 0.000000
         }
        }
       }
      }
     }
     JOINT LeftCollar
     {
      OFFSET 3.157200 10.367500 0.000000
      CHANNELS 3 Yrotation Xrotation Zrotation
      JOINT LeftShoulder
      {
       OFFSET 14.482500 0.000000 0.000000
       CHANNELS 3 Yrotation Xrotation Zrotation
       JOINT LeftElbow
       {
        OFFSET 0.000000 -31.707800 0.000000
        CHANNELS 3 Yrotation Xrotation Zrotation
        JOINT LeftWrist
        {
         OFFSET 0.000000 -25.659300 0.000000
         CHANNELS 3 Yrotation Xrotation Zrotation
         End Site
         {
          OFFSET 0.000000 -18.994300 0.000000
         }
        }
       }
      }
     }
    }
   }
  }
 }
 JOINT RightHip
 {
  OFFSET -8.365600 -0.032100 -0.003200
  CHANNELS 3 Yrotation Xrotation Zrotation
  JOINT RightKnee
  {
   OFFSET 0.000000 -43.980000 0.003100
   CHANNELS 3 Yrotation Xrotation Zrotation
   JOINT RightAnkle
   {
    OFFSET 0.000000 -42.882800 0.005200
    CHANNELS 3 Yrotation Xrotation Zrotation
    JOINT RightToe
    {
     OFFSET 0.000000 -4.915500 10.826300
     CHANNELS 3 Yrotation Xrotation Zrotation
     End Site
     {
      OFFSET 0.000000 -1.517500 6.175900
     }
    }
   }
  }
 }
 JOINT LeftHip
 {
  OFFSET 8.365600 -0.032100 -0.003200
  CHANNELS 3 Yrotation Xrotation Zrotation
  JOINT LeftKnee
  {
   OFFSET 0.000000 -43.980000 0.003100
   CHANNELS 3 Yrotation Xrotation Zrotation
   JOINT LeftAnkle
   {
    OFFSET 0.000000 -42.882800 0.005200
    CHANNELS 3 Yrotation Xrotation Zrotation
    JOINT LeftToe
    {
     OFFSET 0.000000 -4.915500 10.826300
     CHANNELS 3 Yrotation Xrotation Zrotation
     End Site
     {
      OFFSET 0.000000 -1.517500 6.175900
     }
    }
   }
  }
 }
}
MOTION
Frames: 8
Frame Time: 0.008333
5.195260 125.519611 30.637955 -175.639027 -6.911502 -2.892611 -3.689783 5.767829 3.696747 -0.171993 0.274404 0.192098 -0.355540 0.424333 0.297667 -3.448158 5.428077 3.589738 -4.376316 18.124558 -2.586915 -4.073409 -6.532309 -1.756127 7.415082 5.598244 -9.740937 17.837991 -23.784662 -37.027026 -93.627728 -63.919720 121.980748 -21.681237 -16.778994 -23.827084 2.280616 6.497516 1.260396 -26.038187 -25.677742 5.429345 -37.983533 -19.121293 15.687768 -0.553356 2.741239 16.830567 16.196563 -55.452584 -16.843686 -169.523235 59.181103 -164.432877 -6.359256 -37.342055 11.258950 -0.014850 -0.004686 -0.006742 -16.651194 -55.575139 9.160772 169.905188 64.740624 168.171681 -0.120767 -35.447284 -5.805963 -0.019915 0.054549 -0.009050
5.190811 125.511195 30.623727 -175.560629 -6.816273 -2.874782 -3.762485 5.685419 3.683093 -0.146306 0.305282 0.212886 -0.319236 0.454793 0.322819 -3.528578 5.341669 3.572071 -4.354355 18.153390 -2.597051 -4.047675 -6.501263 -1.772002 7.295096 5.579083 -9.832292 17.687691 -23.750925 -37.105052 -94.255436 -64.073249 122.489550 -21.598939 -16.629032 -23.825750 2.212476 6.429066 1.238262 -26.141785 -25.633389 5.613551 -37.711851 -19.056478 15.377080 -0.373043 2.569352 16.457074 16.203571 -55.500951 -16.907649 -169.512771 59.177378 -164.424155 -6.386301 -37.364281 11.260315 -0.018545 -0.004948 -0.008419 -16.802142 -55.544923 9.327604 170.138947 64.866802 168.318072 -0.140616 -35.489415 -5.757096 -0.019272 0.044624 -0.008757
5.185105 125.502853 30.611797 -175.487010 -6.721064 -2.847756 -3.802923 5.634810 3.685765 -0.166567 0.280866 0.198379 -0.320608 0.452314 0.322758 -3.548220 5.318386 3.574657 -4.325537 18.171460 -2.588774 -4.016667 -6.479897 -1.786278 7.178484 5.555415 -9.907928 17.555619 -23.744007 -37.209596 -94.805752 -64.197287 122.947917 -21.537618 -16.497795 -23.821497 2.146510 6.362917 1.240959 -26.309604 -25.596937 5.801379 -37.348044 -18.975116 15.063862 -0.205387 2.376477 16.088589 16.226380 -55.550996 -16.990899 -169.517282 59.167454 -164.442269 -6.406225 -37.385694 11.253041 -0.033401 -0.014990 -0.015161 -16.954659 -55.513310 9.508596 170.402341 64.994976 168.495257 -0.168002 -35.533300 -5.740592 -0.011532 0.031249 -0.005239
5.178866 125.494375 30.603350 -175.430796 -6.617460 -2.813431 -3.800697 5.613717 3.708762 -0.211265 0.215471 0.161433 -0.322009 0.449981 0.322694 -3.568058 5.296061 3.577254 -4.310549 18.179339 -2.591980 -3.968926 -6.463125 -1.789163 7.068447 5.528919 -9.982299 17.441790 -23.742968 -37.339324 -95.296641 -64.276207 123.372024 -21.505061 -16.394426 -23.813964 2.082112 6.299503 1.254611 -26.522737 -25.559295 5.984832 -36.913989 -18.897214 14.759276 -0.071896 2.156833 15.710323 16.267129 -55.622613 -17.095058 -169.525580 59.154585 -164.474044 -6.401907 -37.391412 11.214709 -0.053640 -0.037906 -0.024340 -17.087934 -55.497795 9.694497 170.691899 65.121120 168.710617 -0.205558 -35.552108 -5.733563 0.001579 0.020044 0.000717
5.177219 125.486261 30.595032 -175.370023 -6.518685 -2.804092 -3.837732 5.555359 3.724267 -0.186628 0.251450 0.184599 -0.349425 0.408819 0.301038 -3.600200 5.252223 3.585237 -4.297716 18.188706 -2.610462 -3.921690 -6.454140 -1.786492 6.965727 5.498812 -10.071332 17.342845 -23.725885 -37.492349 -95.764227 -64.303685 123.790844 -21.495188 -16.314363 -23.801073 2.017284 6.243066 1.260153 -26.758541 -25.517684 6.166055 -36.463084 -18.835922 14.480947 0.023927 1.922806 15.312403 16.286289 -55.671490 -17.147516 -169.502284 59.158207 -164.457441 -6.423439 -37.416723 11.204784 -0.063675 -0.038477 -0.028893 -17.248387 -55.482386 9.914378 171.000645 65.240477 168.965014 -0.240164 -35.552198 -5.719461 0.018754 0.009045 0.008516
5.175757 125.477982 30.588821 -175.315707 -6.413930 -2.793315 -3.869142 5.488895 3.736982 -0.187402 0.248217 0.184012 -0.351836 0.405113 0.304561 -3.630305 5.207338 3.588830 -4.241773 18.196552 -2.591318 -3.915306 -6.439493 -1.801909 6.865747 5.462244 -10.155053 17.259426 -23.690501 -37.667095 -96.238441 -64.290528 124.223874 -21.499036 -16.240738 -23.777442 1.950130 6.192638 1.269293 -26.989868 -25.471724 6.344585 -36.056943 -18.790188 14.245284 0.116897 1.709354 14.895205 16.323617 -55.726825 -17.208994 -169.471073 59.165216 -164.420989 -6.450423 -37.436859 11.183353 -0.061218 -0.036848 -0.027779 -17.393849 -55.482809 10.137426 171.268363 65.346957 169.179123 -0.268543 -35.553260 -5.815882 0.016613 -0.006790 0.007542
5.172093 125.469579 30.582656 -175.265665 -6.313616 -2.769227 -3.901723 5.423341 3.733584 -0.188083 0.244711 0.183209 -0.347295 0.403423 0.305901 -3.669115 5.130200 3.596971 -4.233374 18.239685 -2.614631 -3.868934 -6.418468 -1.797241 6.771317 5.452640 -10.234348 17.193419 -23.648333 -37.855424 -96.737492 -64.259852 124.679345 -21.505359 -16.154758 -23.746638 1.887476 6.173703 1.272319 -27.185941 -25.419928 6.508268 -35.720162 -18.751946 14.050222 0.232574 1.520670 14.467460 16.390393 -55.774085 -17.289943 -169.448987 59.170446 -164.394641 -6.491747 -37.458526 11.169427 -0.058780 -0.036671 -0.026673 -17.508280 -55.494657 10.328153 171.429204 65.436212 169.286116 -0.339013 -35.535314 -5.866135 0.003327 -0.020766 0.001510
5.175535 125.461602 30.574118 -175.203380 -6.224688 -2.786244 -3.947261 5.371809 3.767699 -0.188847 0.241071 0.182335 -0.341956 0.397982 0.305186 -3.698009 5.089290 3.588897 -4.203537 18.249665 -2.604151 -3.867166 -6.400338 -1.803659 6.676967 5.407387 -10.296650 17.137492 -23.611171 -38.044711 -97.271649 -64.231772 125.166787 -21.497613 -16.045884 -23.715631 1.824155 6.119469 1.285862 -27.319535 -25.359080 6.641788 -35.439161 -18.724559 13.879863 0.345472 1.341488 14.041301 16.388219 -55.797188 -17.245943 -169.356668 59.188023 -164.289965 -6.592568 -37.503079 11.185240 -0.032396 -0.010909 -0.014706 -17.684461 -55.493997 10.560386 171.657033 65.524878 169.473565 -0.363149 -35.513894 -5.901027 -0.001026 -0.030553 -0.000466
